<svg width="102" height="90" viewBox="0 0 102 90" fill="none" xmlns="http://www.w3.org/2000/svg">
<path d="M51 1.5C42.5943 1.5 34.3773 3.99258 27.3883 8.66254C20.3992 13.3325 14.9518 19.9701 11.7351 27.736C8.51838 35.5018 7.67674 44.0471 9.31661 52.2913C10.9565 60.5355 15.0042 68.1083 20.948 74.052C26.8917 79.9958 34.4645 84.0435 42.7087 85.6834C50.9528 87.3232 59.4982 86.4816 67.264 83.2649C75.0299 80.0482 81.6675 74.6008 86.3374 67.6117C91.0074 60.6226 93.5 52.4057 93.5 44C93.5 38.4188 92.4007 32.8923 90.2649 27.736C88.129 22.5796 84.9985 17.8945 81.052 13.948C77.1055 10.0015 72.4204 6.87094 67.264 4.73512C62.1077 2.5993 56.5812 1.5 51 1.5ZM51 78C44.2754 78 37.7019 76.0059 32.1106 72.27C26.5193 68.534 22.1615 63.2239 19.5881 57.0112C17.0147 50.7985 16.3414 43.9623 17.6533 37.3669C18.9652 30.7716 22.2034 24.7134 26.9584 19.9584C31.7133 15.2034 37.7716 11.9652 44.3669 10.6533C50.9623 9.3414 57.7985 10.0147 64.0112 12.5881C70.2239 15.1615 75.534 19.5193 79.27 25.1106C83.0059 30.7019 85 37.2754 85 44C85 53.0174 81.4179 61.6654 75.0416 68.0416C68.6654 74.4179 60.0173 78 51 78Z" fill="white"/>
<path d="M51 31.25C53.3472 31.25 55.25 29.3472 55.25 27C55.25 24.6528 53.3472 22.75 51 22.75C48.6528 22.75 46.75 24.6528 46.75 27C46.75 29.3472 48.6528 31.25 51 31.25Z" fill="white"/>
<path d="M51 35.5C49.8728 35.5 48.7918 35.9478 47.9948 36.7448C47.1978 37.5418 46.75 38.6228 46.75 39.75V61C46.75 62.1272 47.1978 63.2082 47.9948 64.0052C48.7918 64.8022 49.8728 65.25 51 65.25C52.1272 65.25 53.2082 64.8022 54.0052 64.0052C54.8022 63.2082 55.25 62.1272 55.25 61V39.75C55.25 38.6228 54.8022 37.5418 54.0052 36.7448C53.2082 35.9478 52.1272 35.5 51 35.5Z" fill="white"/>
</svg>
